<svg width="23" height="30" viewBox="0 0 23 30" fill="none" xmlns="http://www.w3.org/2000/svg">
<path d="M0.573256 25.5229L0.573256 4.47705C0.572052 3.64618 0.806173 2.83195 1.24852 2.12862C1.69087 1.42529 2.32335 0.861606 3.07277 0.502822C3.96195 0.0828218 4.95123 -0.0789445 5.92788 0.0359553C6.90453 0.150855 7.82926 0.5378 8.59669 1.1527L21.3442 11.6756C21.8207 12.0886 22.2028 12.5992 22.4647 13.1727C22.7266 13.7463 22.8622 14.3695 22.8622 15C22.8622 15.6305 22.7266 16.2537 22.4647 16.8273C22.2028 17.4008 21.8207 17.9114 21.3442 18.3244L8.59669 28.8473C7.82926 29.4622 6.90453 29.8491 5.92788 29.964C4.95123 30.0789 3.96195 29.9172 3.07277 29.4972C2.32335 29.1384 1.69087 28.5747 1.24852 27.8714C0.806173 27.168 0.572052 26.3538 0.573256 25.5229ZM5.57228 5.00195L5.57228 24.7481L17.6199 15L5.57228 5.00195Z" fill="white"/>
</svg>
