<svg width="21" height="15" viewBox="0 0 21 15" fill="none" xmlns="http://www.w3.org/2000/svg">
<path d="M3.95541 1.04904e-05L17.986 1.04904e-05C18.5399 -0.00079155 19.0827 0.15529 19.5516 0.450188C20.0205 0.745086 20.3963 1.16674 20.6355 1.66635C20.9155 2.25914 21.0233 2.91866 20.9467 3.56976C20.8701 4.22086 20.6122 4.83735 20.2022 5.34897L13.1869 13.8473C12.9116 14.165 12.5713 14.4197 12.1889 14.5943C11.8065 14.7689 11.3911 14.8593 10.9707 14.8593C10.5504 14.8593 10.1349 14.7689 9.75253 14.5943C9.37015 14.4197 9.02978 14.165 8.75447 13.8473L1.73917 5.34897C1.32924 4.83735 1.07127 4.22086 0.994673 3.56976C0.918074 2.91866 1.02592 2.25914 1.30592 1.66635C1.54511 1.16674 1.9209 0.745086 2.38979 0.450188C2.85868 0.15529 3.40149 -0.00079155 3.95541 1.04904e-05ZM19.5516 2.4091L2.38979 2.4091L10.9707 13.4091L19.5516 2.4091Z" fill="white"/>
</svg>
