<svg width="40" height="40" viewBox="0 0 40 40" fill="none" xmlns="http://www.w3.org/2000/svg">
<path d="M19.9999 33.3334L18.3749 31.7234L7.49993 20.9534C6.67544 20.1511 6.026 19.1867 5.59251 18.1211C5.15902 17.0555 4.95087 15.9116 4.98116 14.7616C5.01145 13.6116 5.27954 12.4803 5.76853 11.4389C6.25752 10.3976 6.95682 9.46881 7.82241 8.71102C8.68799 7.95323 9.70111 7.38287 10.798 7.03585C11.8948 6.68884 13.0516 6.57269 14.1955 6.69472C15.3395 6.81675 16.4458 7.17431 17.4447 7.74489C18.4437 8.31548 19.3137 9.08672 19.9999 10.01C21.268 8.32335 23.1287 7.18054 25.2066 6.81228C27.2844 6.44403 29.4245 6.87777 31.195 8.02595C32.9655 9.17413 34.2345 10.9512 34.7458 12.9986C35.2571 15.0459 34.9727 17.2109 33.9499 19.0567" stroke="black" stroke-width="4" stroke-linecap="round" stroke-linejoin="round"/>
<path d="M33.6667 33.6667L36.6667 36.6667M25 30C25 31.3261 25.5268 32.5979 26.4645 33.5355C27.4021 34.4732 28.6739 35 30 35C31.3261 35 32.5979 34.4732 33.5355 33.5355C34.4732 32.5979 35 31.3261 35 30C35 28.6739 34.4732 27.4021 33.5355 26.4645C32.5979 25.5268 31.3261 25 30 25C28.6739 25 27.4021 25.5268 26.4645 26.4645C25.5268 27.4021 25 28.6739 25 30Z" stroke="black" stroke-width="4" stroke-linecap="round" stroke-linejoin="round"/>
</svg>
