<svg width="50" height="50" viewBox="0 0 50 50" fill="none" xmlns="http://www.w3.org/2000/svg">
<path d="M25.002 41.6667C29.4223 41.6667 33.6615 39.9107 36.7871 36.7851C39.9128 33.6595 41.6687 29.4203 41.6687 25C41.6687 20.5797 39.9128 16.3405 36.7871 13.2149C33.6615 10.0893 29.4223 8.33332 25.002 8.33332C20.5818 8.33332 16.3425 10.0893 13.2169 13.2149C10.0913 16.3405 8.33537 20.5797 8.33537 25C8.33537 29.4203 10.0913 33.6595 13.2169 36.7851C16.3425 39.9107 20.5818 41.6667 25.002 41.6667ZM25.002 45.8333C13.4958 45.8333 4.1687 36.5062 4.1687 25C4.1687 13.4937 13.4958 4.16666 25.002 4.16666C36.5083 4.16666 45.8354 13.4937 45.8354 25C45.8354 36.5062 36.5083 45.8333 25.002 45.8333ZM18.5229 27.4375L13.3187 25.8146C12.1937 25.4708 12.1875 24.6958 13.5708 24.1396L33.8479 16.3062C35.0229 15.8271 35.6937 16.4333 35.3125 17.9521L31.8583 34.2437C31.6166 35.4042 30.9187 35.6812 29.9499 35.1458L24.6354 31.2125L22.1583 33.6042C21.9041 33.85 21.6979 34.0604 21.3062 34.1125C20.9166 34.1667 20.5958 34.05 20.3604 33.4042L18.5479 27.4229L18.5229 27.4375Z" fill="#97DFAE"/>
</svg>
