<svg width="50" height="50" viewBox="0 0 50 50" fill="none" xmlns="http://www.w3.org/2000/svg">
<path d="M25.0001 41.6667C29.4204 41.6667 33.6596 39.9107 36.7852 36.7851C39.9108 33.6595 41.6667 29.4203 41.6667 25C41.6667 20.5797 39.9108 16.3405 36.7852 13.2149C33.6596 10.0893 29.4204 8.33332 25.0001 8.33332C20.5798 8.33332 16.3406 10.0893 13.215 13.2149C10.0894 16.3405 8.33341 20.5797 8.33341 25C8.33341 29.4203 10.0894 33.6595 13.215 36.7851C16.3406 39.9107 20.5798 41.6667 25.0001 41.6667ZM25.0001 45.8333C13.4938 45.8333 4.16675 36.5062 4.16675 25C4.16675 13.4937 13.4938 4.16666 25.0001 4.16666C36.5063 4.16666 45.8334 13.4937 45.8334 25C45.8334 36.5062 36.5063 45.8333 25.0001 45.8333Z" fill="#97DFAE"/>
<path d="M35.4168 18.6396C34.6502 18.9729 33.8272 19.2021 32.9627 19.3021C33.846 18.7812 34.521 17.9562 34.8418 16.975C34.0001 17.4655 33.0817 17.8107 32.1252 17.9958C31.7228 17.5741 31.2388 17.2387 30.7026 17.0102C30.1664 16.7817 29.5893 16.6648 29.0064 16.6666C26.646 16.6666 24.7335 18.5521 24.7335 20.875C24.7335 21.2041 24.771 21.525 24.8439 21.8333C23.1508 21.7529 21.4931 21.3205 19.9765 20.5636C18.4599 19.8067 17.1177 18.7421 16.0356 17.4375C15.6555 18.0773 15.4554 18.8079 15.4564 19.5521C15.4564 21.0104 16.2127 22.3021 17.3585 23.0541C16.6803 23.0329 16.0165 22.8523 15.421 22.5271V22.5791C15.4274 23.5572 15.7727 24.5028 16.3979 25.2549C17.0232 26.007 17.8898 26.5192 18.8502 26.7041C18.2197 26.8709 17.5599 26.8951 16.9189 26.775C17.1983 27.6164 17.7328 28.3499 18.4481 28.8737C19.1634 29.3975 20.0241 29.6855 20.9106 29.6979C19.3897 30.8699 17.5223 31.5031 15.6022 31.4979C15.2585 31.4979 14.9189 31.4771 14.5835 31.4396C16.5428 32.6797 18.8147 33.3366 21.1335 33.3333C28.996 33.3333 33.2939 26.9208 33.2939 21.3583L33.2793 20.8125C34.1174 20.2235 34.8417 19.4872 35.4168 18.6396Z" fill="#97DFAE"/>
</svg>
